<svg width="1000" height="500" viewBox="0 0 1000 500" fill="none" xmlns="http://www.w3.org/2000/svg">
<g clip-path="url(#clip0)">
<path d="M332.908 222.696V195.117C332.908 165.706 318.183 151 288.735 151H262.571V173.06H288.735C303.455 173.06 310.817 180.413 310.819 195.117V222.696C310.819 238.872 318.182 248.064 332.908 250.27C318.182 252.479 310.819 261.672 310.819 277.849V305.423C310.819 320.13 303.458 327.484 288.735 327.484L218.685 327.401L202.49 311.227L244.742 269.002C251.46 263.054 256.205 255.205 258.35 246.499C260.494 237.792 259.935 228.64 256.747 220.259C253.559 211.877 247.893 204.663 240.502 199.574C233.11 194.486 224.344 191.764 215.367 191.77C205.017 191.77 196.159 196.9 189.949 201.049C187.429 202.73 186.996 202.772 184.04 201.049C177.588 197.288 168.975 191.777 158.63 191.777C149.654 191.772 140.889 194.494 133.499 199.581C126.109 204.669 120.444 211.882 117.257 220.262C114.069 228.642 113.509 237.792 115.652 246.497C117.795 255.202 122.539 263.05 129.254 268.998L155.801 295.512L171.28 280.057L144.488 253.309L143.945 252.802C140.508 249.817 138.065 245.855 136.945 241.445C135.825 237.036 136.081 232.39 137.679 228.13C139.277 223.87 142.14 220.199 145.885 217.61C149.63 215.02 154.078 213.636 158.633 213.642C162.776 213.642 168.203 216.986 172.568 219.66C177.543 222.722 181.84 225.366 187.011 225.366C192.182 225.366 196.479 222.733 201.454 219.656C205.812 216.975 211.246 213.638 215.389 213.638C219.943 213.634 224.39 215.02 228.134 217.609C231.877 220.199 234.74 223.869 236.337 228.128C237.935 232.388 238.191 237.033 237.072 241.442C235.954 245.85 233.513 249.813 230.077 252.798L155.233 327.484H85.2841C70.5585 327.484 63.1957 320.13 63.1957 305.423V277.849C63.1957 261.672 55.8329 252.479 41.1072 250.27C55.8329 248.066 63.1957 238.875 63.1957 222.696V195.117C63.1957 180.41 70.5585 173.058 85.2841 173.06H111.444V151H85.2841C55.8203 151 41.0884 165.706 41.0884 195.117V222.696C41.0884 233.729 33.7256 239.246 19 239.246V261.306C33.7256 261.306 41.0884 266.823 41.0884 277.856V305.431C41.0884 334.842 55.814 349.549 85.2652 349.552L164.143 349.507L186.996 326.683L209.913 349.567H230.781H288.735C318.181 349.567 332.905 334.86 332.908 305.446V277.849C332.908 266.815 340.272 261.299 355 261.299V239.242C340.274 239.242 332.91 233.726 332.908 222.696Z" fill="#D73A31"/>
<path d="M450.619 155.257V163.561H436.638V211.649H450.619V220H411.679V211.649H425.66V163.561H411.679V155.257H450.619ZM492.712 164.031V220H481.827V164.031H462.405V155.257H512.603L511.477 164.031H492.712ZM607.204 220L586.609 164.922C586.734 166.204 586.922 168.206 587.172 170.927C587.422 173.617 587.641 176.698 587.829 180.169C588.047 183.61 588.157 187.081 588.157 190.584V220H578.492V155.257H592.614L613.256 210.382C613.037 208.443 612.725 205.144 612.318 200.483C611.912 195.823 611.708 190.584 611.708 184.767V155.257H621.373V220H607.204ZM656.241 169.144C663.497 169.144 669.033 171.506 672.849 176.228C676.664 180.951 678.572 187.253 678.572 195.135C678.572 200.39 677.696 204.972 675.945 208.881C674.225 212.791 671.691 215.84 668.345 218.03C665.029 220.188 660.979 221.267 656.194 221.267C648.969 221.267 643.433 218.937 639.586 214.276C635.739 209.585 633.815 203.236 633.815 195.229C633.815 190.1 634.676 185.58 636.396 181.671C638.147 177.73 640.696 174.665 644.043 172.475C647.389 170.255 651.455 169.144 656.241 169.144ZM656.241 177.307C652.456 177.307 649.61 178.762 647.702 181.671C645.794 184.548 644.84 189.067 644.84 195.229C644.84 201.39 645.779 205.926 647.655 208.834C649.563 211.712 652.409 213.15 656.194 213.15C659.978 213.15 662.809 211.696 664.685 208.787C666.593 205.879 667.547 201.328 667.547 195.135C667.547 189.036 666.609 184.548 664.732 181.671C662.856 178.762 660.025 177.307 656.241 177.307ZM734.036 217.373C732.222 218.53 730.048 219.468 727.515 220.188C724.981 220.907 722.338 221.267 719.586 221.267C713.831 221.267 709.452 219.781 706.45 216.81C703.479 213.807 701.993 209.866 701.993 204.987V178.105H690.968V170.458H701.993V159.386L712.502 158.119V170.458H729.204L728.031 178.105H712.502V204.893C712.502 207.552 713.159 209.538 714.472 210.852C715.817 212.134 718.007 212.775 721.04 212.775C722.854 212.775 724.512 212.556 726.013 212.118C727.546 211.68 728.953 211.117 730.236 210.429L734.036 217.373ZM819.629 163.514V184.11H843.978V192.367H819.629V220H808.745V155.257H848.576L847.356 163.514H819.629ZM881.286 169.144C888.542 169.144 894.078 171.506 897.893 176.228C901.709 180.951 903.617 187.253 903.617 195.135C903.617 200.39 902.741 204.972 900.99 208.881C899.27 212.791 896.736 215.84 893.39 218.03C890.074 220.188 886.024 221.267 881.239 221.267C874.014 221.267 868.478 218.937 864.631 214.276C860.784 209.585 858.86 203.236 858.86 195.229C858.86 190.1 859.72 185.58 861.441 181.671C863.192 177.73 865.741 174.665 869.088 172.475C872.434 170.255 876.5 169.144 881.286 169.144ZM881.286 177.307C877.501 177.307 874.655 178.762 872.747 181.671C870.839 184.548 869.885 189.067 869.885 195.229C869.885 201.39 870.824 205.926 872.7 208.834C874.608 211.712 877.454 213.15 881.239 213.15C885.023 213.15 887.854 211.696 889.73 208.787C891.638 205.879 892.592 201.328 892.592 195.135C892.592 189.036 891.654 184.548 889.777 181.671C887.901 178.762 885.07 177.307 881.286 177.307ZM918.171 220V212.494H925.443V177.917H918.171V170.458H933.465L935.389 181.952C937.234 177.792 939.517 174.633 942.238 172.475C944.991 170.286 948.525 169.191 952.841 169.191C954.311 169.191 955.625 169.316 956.782 169.566C957.97 169.785 959.143 170.083 960.301 170.458L958.518 188.708H951.011V178.621C947.508 178.746 944.49 180.154 941.957 182.843C939.423 185.502 937.422 189.255 935.952 194.103V212.494H945.945V220H918.171ZM455.967 298.572C455.967 303.607 454.888 307.704 452.73 310.863C450.572 313.991 447.585 316.29 443.769 317.76C439.985 319.199 435.621 319.918 430.68 319.918H422.845V343H411.961V278.257H429.929C438.061 278.257 444.426 279.931 449.024 283.277C453.652 286.593 455.967 291.691 455.967 298.572ZM444.52 298.665C444.52 294.224 443.253 291.081 440.72 289.236C438.217 287.359 434.855 286.421 430.633 286.421H422.845V311.614H430.774C434.84 311.614 438.139 310.676 440.673 308.799C443.237 306.922 444.52 303.545 444.52 298.665ZM468.081 343V335.494H475.353V300.917H468.081V293.458H483.375L485.299 304.952C487.144 300.792 489.427 297.633 492.149 295.475C494.901 293.286 498.435 292.191 502.751 292.191C504.221 292.191 505.535 292.316 506.692 292.566C507.881 292.785 509.054 293.083 510.211 293.458L508.428 311.708H500.922V301.621C497.419 301.746 494.4 303.154 491.867 305.843C489.334 308.502 487.332 312.255 485.862 317.103V335.494H495.855V343H468.081ZM543.718 292.144C550.974 292.144 556.51 294.506 560.326 299.228C564.142 303.951 566.05 310.253 566.05 318.135C566.05 323.39 565.174 327.972 563.423 331.881C561.702 335.791 559.169 338.84 555.822 341.03C552.507 343.188 548.457 344.267 543.671 344.267C536.446 344.267 530.911 341.937 527.064 337.276C523.216 332.585 521.293 326.236 521.293 318.229C521.293 313.1 522.153 308.58 523.873 304.671C525.625 300.73 528.174 297.665 531.52 295.475C534.867 293.255 538.933 292.144 543.718 292.144ZM543.718 300.307C539.934 300.307 537.088 301.762 535.18 304.671C533.272 307.548 532.318 312.067 532.318 318.229C532.318 324.39 533.256 328.926 535.133 331.834C537.041 334.712 539.887 336.15 543.671 336.15C547.456 336.15 550.286 334.696 552.163 331.787C554.071 328.879 555.025 324.328 555.025 318.135C555.025 312.036 554.086 307.548 552.21 304.671C550.333 301.762 547.503 300.307 543.718 300.307ZM610.254 272.393C613.288 272.393 615.993 272.659 618.37 273.191C620.778 273.691 622.999 274.379 625.032 275.255L621.936 282.527C620.278 281.839 618.542 281.338 616.728 281.025C614.945 280.713 613.131 280.556 611.286 280.556C604.906 280.556 601.715 283.121 601.715 288.25V297.023H618.276L617.15 304.764H601.715V343H591.253V304.764H579.994V297.023H591.253V288.156C591.253 283.465 592.989 279.665 596.461 276.756C599.933 273.847 604.53 272.393 610.254 272.393ZM656.147 269.203C658.211 269.203 659.869 269.828 661.12 271.079C662.402 272.331 663.043 273.894 663.043 275.771C663.043 277.648 662.402 279.227 661.12 280.509C659.869 281.792 658.211 282.433 656.147 282.433C654.145 282.433 652.503 281.792 651.221 280.509C649.938 279.227 649.297 277.648 649.297 275.771C649.297 273.894 649.938 272.331 651.221 271.079C652.503 269.828 654.145 269.203 656.147 269.203ZM663.466 293.458V335.306H676.93V343H638.132V335.306H652.957V301.152H638.601V293.458H663.466ZM734.036 340.373C732.222 341.53 730.048 342.468 727.515 343.188C724.981 343.907 722.338 344.267 719.586 344.267C713.831 344.267 709.452 342.781 706.45 339.81C703.479 336.807 701.993 332.866 701.993 327.987V301.105H690.968V293.458H701.993V282.386L712.502 281.119V293.458H729.204L728.031 301.105H712.502V327.893C712.502 330.552 713.159 332.538 714.472 333.852C715.817 335.134 718.007 335.775 721.04 335.775C722.854 335.775 724.512 335.556 726.013 335.118C727.546 334.68 728.953 334.117 730.236 333.429L734.036 340.373Z" fill="black"/>
</g>
<defs>
<clipPath id="clip0">
<rect width="1000" height="500" fill="white"/>
</clipPath>
</defs>
</svg>
